<mxfile host="app.diagrams.net" agent="Mozilla/5.0 (Windows NT 10.0; Win64; x64) AppleWebKit/537.36 (KHTML, like Gecko) Chrome/131.0.0.0 Safari/537.36" version="26.0.3">
  <diagram name="Page-1" id="GJa7JYYJgAsS5OasL08z">
    <mxGraphModel dx="1430" dy="757" grid="1" gridSize="10" guides="1" tooltips="1" connect="1" arrows="1" fold="1" page="1" pageScale="1" pageWidth="827" pageHeight="1169" math="0" shadow="0">
      <root>
        <mxCell id="0" />
        <mxCell id="1" parent="0" />
        <mxCell id="3x7n2LTm0AvlwtyBIQbi-3" value="" style="rounded=1;whiteSpace=wrap;html=1;" vertex="1" parent="1">
          <mxGeometry x="280" y="80" width="181" height="70" as="geometry" />
        </mxCell>
        <mxCell id="3x7n2LTm0AvlwtyBIQbi-4" value="" style="rounded=1;whiteSpace=wrap;html=1;" vertex="1" parent="1">
          <mxGeometry x="210" y="180" width="320" height="50" as="geometry" />
        </mxCell>
        <mxCell id="3x7n2LTm0AvlwtyBIQbi-5" value="" style="rounded=1;whiteSpace=wrap;html=1;" vertex="1" parent="1">
          <mxGeometry x="570" y="80" width="231.33" height="190" as="geometry" />
        </mxCell>
        <mxCell id="3x7n2LTm0AvlwtyBIQbi-6" value="" style="rounded=1;whiteSpace=wrap;html=1;" vertex="1" parent="1">
          <mxGeometry x="10" y="80" width="158.34" height="190" as="geometry" />
        </mxCell>
        <mxCell id="3x7n2LTm0AvlwtyBIQbi-7" value="电机模块" style="rounded=0;whiteSpace=wrap;html=1;" vertex="1" parent="1">
          <mxGeometry x="25.92" y="120" width="126.51" height="30" as="geometry" />
        </mxCell>
        <mxCell id="3x7n2LTm0AvlwtyBIQbi-8" value="OLED 显示" style="rounded=0;whiteSpace=wrap;html=1;" vertex="1" parent="1">
          <mxGeometry x="25.92" y="220" width="127.34" height="30" as="geometry" />
        </mxCell>
        <mxCell id="3x7n2LTm0AvlwtyBIQbi-9" value="MPU6050" style="rounded=0;whiteSpace=wrap;html=1;" vertex="1" parent="1">
          <mxGeometry x="25.92" y="170" width="126.51" height="30" as="geometry" />
        </mxCell>
        <mxCell id="3x7n2LTm0AvlwtyBIQbi-11" value="原生应用" style="rounded=0;whiteSpace=wrap;html=1;" vertex="1" parent="1">
          <mxGeometry x="637.34" y="290" width="96.66" height="30" as="geometry" />
        </mxCell>
        <mxCell id="3x7n2LTm0AvlwtyBIQbi-12" value="Nano" style="rounded=0;whiteSpace=wrap;html=1;" vertex="1" parent="1">
          <mxGeometry x="399.25" y="190" width="96.66" height="30" as="geometry" />
        </mxCell>
        <mxCell id="3x7n2LTm0AvlwtyBIQbi-13" value="双目视觉定位" style="rounded=0;whiteSpace=wrap;html=1;" vertex="1" parent="1">
          <mxGeometry x="583.3400000000001" y="160" width="96.66" height="30" as="geometry" />
        </mxCell>
        <mxCell id="3x7n2LTm0AvlwtyBIQbi-14" style="edgeStyle=orthogonalEdgeStyle;rounded=0;orthogonalLoop=1;jettySize=auto;html=1;exitX=0;exitY=0.5;exitDx=0;exitDy=0;entryX=1;entryY=0.5;entryDx=0;entryDy=0;" edge="1" parent="1" source="3x7n2LTm0AvlwtyBIQbi-15" target="3x7n2LTm0AvlwtyBIQbi-13">
          <mxGeometry relative="1" as="geometry" />
        </mxCell>
        <mxCell id="3x7n2LTm0AvlwtyBIQbi-15" value="RGB双目摄像头" style="rounded=0;whiteSpace=wrap;html=1;" vertex="1" parent="1">
          <mxGeometry x="694.6700000000001" y="160" width="96.66" height="30" as="geometry" />
        </mxCell>
        <mxCell id="3x7n2LTm0AvlwtyBIQbi-16" value="STM32F407" style="rounded=0;whiteSpace=wrap;html=1;" vertex="1" parent="1">
          <mxGeometry x="240.59000000000003" y="190" width="96.66" height="30" as="geometry" />
        </mxCell>
        <mxCell id="3x7n2LTm0AvlwtyBIQbi-17" value="" style="shape=flexArrow;endArrow=classic;startArrow=classic;html=1;rounded=0;entryX=0;entryY=0.5;entryDx=0;entryDy=0;exitX=1;exitY=0.5;exitDx=0;exitDy=0;" edge="1" parent="1" source="3x7n2LTm0AvlwtyBIQbi-16" target="3x7n2LTm0AvlwtyBIQbi-12">
          <mxGeometry width="100" height="100" relative="1" as="geometry">
            <mxPoint x="309.25" y="340" as="sourcePoint" />
            <mxPoint x="409.25" y="240" as="targetPoint" />
          </mxGeometry>
        </mxCell>
        <mxCell id="3x7n2LTm0AvlwtyBIQbi-18" value="12V 锂电池" style="rounded=0;whiteSpace=wrap;html=1;" vertex="1" parent="1">
          <mxGeometry x="310.5" y="104.16000000000008" width="120" height="30" as="geometry" />
        </mxCell>
        <mxCell id="3x7n2LTm0AvlwtyBIQbi-19" value="" style="shape=flexArrow;endArrow=classic;html=1;rounded=0;" edge="1" parent="1">
          <mxGeometry width="50" height="50" relative="1" as="geometry">
            <mxPoint x="170" y="200" as="sourcePoint" />
            <mxPoint x="210" y="200" as="targetPoint" />
          </mxGeometry>
        </mxCell>
        <mxCell id="3x7n2LTm0AvlwtyBIQbi-20" value="" style="shape=flexArrow;endArrow=classic;html=1;rounded=0;exitX=1.015;exitY=0.44;exitDx=0;exitDy=0;exitPerimeter=0;" edge="1" parent="1">
          <mxGeometry width="50" height="50" relative="1" as="geometry">
            <mxPoint x="568" y="200" as="sourcePoint" />
            <mxPoint x="530" y="200" as="targetPoint" />
          </mxGeometry>
        </mxCell>
        <mxCell id="3x7n2LTm0AvlwtyBIQbi-21" value="&lt;font face=&quot;Comic Sans MS&quot;&gt;&lt;span style=&quot;white-space: pre;&quot;&gt;&lt;b&gt;底层控制单元&lt;/b&gt;&lt;/span&gt;&lt;/font&gt;" style="text;html=1;strokeColor=none;fillColor=none;align=center;verticalAlign=middle;whiteSpace=wrap;rounded=0;" vertex="1" parent="1">
          <mxGeometry x="13.840000000000003" y="90" width="150.67" height="20" as="geometry" />
        </mxCell>
        <mxCell id="3x7n2LTm0AvlwtyBIQbi-22" value="&lt;b&gt;&lt;font face=&quot;Comic Sans MS&quot;&gt;高性能计算单元&lt;/font&gt;&lt;/b&gt;" style="text;html=1;strokeColor=none;fillColor=none;align=center;verticalAlign=middle;whiteSpace=wrap;rounded=0;" vertex="1" parent="1">
          <mxGeometry x="598.31" y="84.15999999999997" width="174.71" height="20" as="geometry" />
        </mxCell>
        <mxCell id="3x7n2LTm0AvlwtyBIQbi-23" value="&lt;b&gt;&lt;font face=&quot;Comic Sans MS&quot;&gt;电源装置&lt;/font&gt;&lt;/b&gt;" style="text;html=1;strokeColor=none;fillColor=none;align=center;verticalAlign=middle;whiteSpace=wrap;rounded=0;" vertex="1" parent="1">
          <mxGeometry x="306.5" y="80" width="128" height="24.16" as="geometry" />
        </mxCell>
        <mxCell id="3x7n2LTm0AvlwtyBIQbi-24" value="无线模块" style="rounded=0;whiteSpace=wrap;html=1;" vertex="1" parent="1">
          <mxGeometry x="637.33" y="220" width="96.66" height="30" as="geometry" />
        </mxCell>
        <mxCell id="3x7n2LTm0AvlwtyBIQbi-25" value="" style="shape=flexArrow;endArrow=classic;startArrow=classic;html=1;rounded=0;entryX=0.5;entryY=0;entryDx=0;entryDy=0;exitX=0.5;exitY=1;exitDx=0;exitDy=0;startWidth=21.142857142857142;startSize=4.24;endWidth=21.142857142857142;endSize=3.2857142857142856;" edge="1" parent="1" source="3x7n2LTm0AvlwtyBIQbi-24" target="3x7n2LTm0AvlwtyBIQbi-11">
          <mxGeometry width="100" height="100" relative="1" as="geometry">
            <mxPoint x="470" y="294.5" as="sourcePoint" />
            <mxPoint x="580" y="294.5" as="targetPoint" />
          </mxGeometry>
        </mxCell>
        <mxCell id="3x7n2LTm0AvlwtyBIQbi-26" value="" style="shape=flexArrow;endArrow=classic;html=1;rounded=0;exitX=0.5;exitY=1;exitDx=0;exitDy=0;" edge="1" parent="1" source="3x7n2LTm0AvlwtyBIQbi-3">
          <mxGeometry width="50" height="50" relative="1" as="geometry">
            <mxPoint x="360" y="410" as="sourcePoint" />
            <mxPoint x="371" y="180" as="targetPoint" />
          </mxGeometry>
        </mxCell>
        <mxCell id="3x7n2LTm0AvlwtyBIQbi-27" value="格子标定板" style="rounded=0;whiteSpace=wrap;html=1;" vertex="1" parent="1">
          <mxGeometry x="694.6700000000001" y="120" width="96.66" height="30" as="geometry" />
        </mxCell>
        <mxCell id="3x7n2LTm0AvlwtyBIQbi-28" value="双目视觉标定" style="rounded=0;whiteSpace=wrap;html=1;" vertex="1" parent="1">
          <mxGeometry x="583.3400000000001" y="120" width="96.66" height="30" as="geometry" />
        </mxCell>
        <mxCell id="3x7n2LTm0AvlwtyBIQbi-29" style="edgeStyle=orthogonalEdgeStyle;rounded=0;orthogonalLoop=1;jettySize=auto;html=1;exitX=0;exitY=0.5;exitDx=0;exitDy=0;entryX=1.038;entryY=0.49;entryDx=0;entryDy=0;entryPerimeter=0;" edge="1" parent="1" source="3x7n2LTm0AvlwtyBIQbi-27" target="3x7n2LTm0AvlwtyBIQbi-28">
          <mxGeometry relative="1" as="geometry" />
        </mxCell>
      </root>
    </mxGraphModel>
  </diagram>
</mxfile>
